<svg xmlns="http://www.w3.org/2000/svg" viewBox="0 0 273.21 248.79"><defs><style>.cls-1{fill:#5f38fa;}.cls-2{fill:#ff7268;}.cls-3{fill:#fac800;}</style></defs><g id="Ebene_2" data-name="Ebene 2"><g id="Ebene_1-2" data-name="Ebene 1"><path d="M34.9,243.39a17.29,17.29,0,0,1-5.39,3.87,17,17,0,0,1-7.26,1.46,20.63,20.63,0,0,1-7.41-1.25,14.81,14.81,0,0,1-5.46-3.53A15.28,15.28,0,0,1,6,238.48a20.07,20.07,0,0,1-1.18-7.06,17.6,17.6,0,0,1,1.28-6.67,16.73,16.73,0,0,1,9.06-9.24,17.84,17.84,0,0,1,7.1-1.38,17.75,17.75,0,0,1,7.19,1.42A16.43,16.43,0,0,1,35,219.39l-5.18,5.25a10.12,10.12,0,0,0-3.26-2.49,9.86,9.86,0,0,0-4.28-.89,9,9,0,0,0-4.09.86,8.82,8.82,0,0,0-2.87,2.25,9.07,9.07,0,0,0-1.69,3.25,13.24,13.24,0,0,0-.56,3.8,12.38,12.38,0,0,0,.56,3.67,10,10,0,0,0,1.69,3.25,8.58,8.58,0,0,0,2.87,2.35,8.78,8.78,0,0,0,4.09.9,10.39,10.39,0,0,0,4.42-.93,9.86,9.86,0,0,0,3.39-2.53Z"/><path d="M37.88,231.42a17.41,17.41,0,0,1,1.28-6.67,16.65,16.65,0,0,1,9.06-9.24,18.9,18.9,0,0,1,14.18,0,16.65,16.65,0,0,1,9.06,9.24,18,18,0,0,1,0,13.35,17.33,17.33,0,0,1-3.56,5.53,16.58,16.58,0,0,1-5.5,3.77,18.78,18.78,0,0,1-14.18,0,16.47,16.47,0,0,1-5.5-3.77,17.59,17.59,0,0,1-4.84-12.21Zm17.43,10.31a8.48,8.48,0,0,0,4.08-.93,8.76,8.76,0,0,0,2.87-2.46A10.77,10.77,0,0,0,64,235a11.93,11.93,0,0,0,0-7.16,10.35,10.35,0,0,0-1.7-3.32,8.89,8.89,0,0,0-2.87-2.42,9.41,9.41,0,0,0-8.16,0,8.79,8.79,0,0,0-2.87,2.42,10.35,10.35,0,0,0-1.7,3.32,11.93,11.93,0,0,0,0,7.16,10.77,10.77,0,0,0,1.7,3.32,8.66,8.66,0,0,0,2.87,2.46A8.48,8.48,0,0,0,55.31,241.73Z"/><path d="M100.69,244.5A18.08,18.08,0,0,1,99.17,246a11,11,0,0,1-2.11,1.38,13.66,13.66,0,0,1-2.7,1,12.35,12.35,0,0,1-3.36.42,13,13,0,0,1-5.19-1.11,13.7,13.7,0,0,1-4.56-3.25A16.56,16.56,0,0,1,78,239.17a19,19,0,0,1-1.25-7.12,18.48,18.48,0,0,1,1.11-6.68,17.48,17.48,0,0,1,2.77-4.88,14.32,14.32,0,0,1,3-2.76A21.41,21.41,0,0,1,87,215.89a15.84,15.84,0,0,1,3.28-1,14.44,14.44,0,0,1,2.77-.31c1.06,0,1.94,0,2.63.1a16.75,16.75,0,0,1,1.86.28,8.31,8.31,0,0,1,1.53.45l1.59.62V201.54h8.09v46.14H100.9Zm0-21.17A6.87,6.87,0,0,0,98,222a17.46,17.46,0,0,0-4-.38,7.73,7.73,0,0,0-4,.94A9.5,9.5,0,0,0,87.2,225a10.84,10.84,0,0,0-1.63,3.22,12.54,12.54,0,0,0-.59,3.84A11.21,11.21,0,0,0,87.06,239a7,7,0,0,0,6,2.77,7.28,7.28,0,0,0,3.53-.79A7.09,7.09,0,0,0,99,238.89a8.4,8.4,0,0,0,1.31-2.73,10.49,10.49,0,0,0,.42-2.87Z"/><path d="M146.34,243l-1.14,1.14a13.5,13.5,0,0,1-2.7,2A21.23,21.23,0,0,1,138,248a22.86,22.86,0,0,1-6.54.83,18.27,18.27,0,0,1-7.06-1.32,15.49,15.49,0,0,1-8.89-9.2,20.62,20.62,0,0,1-1.21-7.19,18.27,18.27,0,0,1,1.21-6.68,16.42,16.42,0,0,1,3.39-5.36,16.11,16.11,0,0,1,5.19-3.6,16.62,16.62,0,0,1,6.68-1.31,15.8,15.8,0,0,1,7.5,1.63,14,14,0,0,1,4.95,4.25,17.73,17.73,0,0,1,2.7,6,28,28,0,0,1,.83,6.78v1.17H122.55a6.69,6.69,0,0,0,.79,3.26,8.43,8.43,0,0,0,2.08,2.49,9.39,9.39,0,0,0,2.9,1.59,9.91,9.91,0,0,0,3.22.55,16.66,16.66,0,0,0,4.11-.45,16.15,16.15,0,0,0,3-1,9.56,9.56,0,0,0,2-1.24c.53-.44.94-.8,1.21-1.07Zm-8-14.95a6.89,6.89,0,0,0-.49-2.49,6.81,6.81,0,0,0-1.42-2.24,7.13,7.13,0,0,0-2.38-1.66,8,8,0,0,0-3.32-.66,9.09,9.09,0,0,0-3.57.66,8.24,8.24,0,0,0-2.59,1.66,7.18,7.18,0,0,0-1.59,2.24,6.06,6.06,0,0,0-.55,2.49Z"/><path d="M154.85,221.88h-5.53v-6.64h5.53V204.72H163v10.52h8.72v6.64H163v14.18a8,8,0,0,0,.94,4.25,3.26,3.26,0,0,0,3,1.49,7.09,7.09,0,0,0,3.07-.55,13.91,13.91,0,0,0,2.18-1.32l3.46,5a16.36,16.36,0,0,1-4.77,2.87,15.07,15.07,0,0,1-5.26.87,13.06,13.06,0,0,1-5-.87,8.23,8.23,0,0,1-3.35-2.45,9.67,9.67,0,0,1-1.84-3.84,20.67,20.67,0,0,1-.55-4.95Z"/><path d="M209.43,243l-1.14,1.14a14.11,14.11,0,0,1-2.7,2,21.57,21.57,0,0,1-4.5,1.87,22.74,22.74,0,0,1-6.53.83,18.23,18.23,0,0,1-7.06-1.32,15.49,15.49,0,0,1-8.89-9.2,20.39,20.39,0,0,1-1.21-7.19,18.07,18.07,0,0,1,1.21-6.68A16.42,16.42,0,0,1,182,219a15.89,15.89,0,0,1,5.19-3.6,16.57,16.57,0,0,1,6.67-1.31,15.85,15.85,0,0,1,7.51,1.63,14,14,0,0,1,4.95,4.25,17.52,17.52,0,0,1,2.69,6,27.49,27.49,0,0,1,.83,6.78v1.17H185.63a6.7,6.7,0,0,0,.8,3.26,8.55,8.55,0,0,0,2.07,2.49,9.44,9.44,0,0,0,2.91,1.59,9.86,9.86,0,0,0,3.22.55,16.78,16.78,0,0,0,4.11-.45,16.15,16.15,0,0,0,3-1,9.56,9.56,0,0,0,2-1.24c.53-.44.93-.8,1.21-1.07Zm-8-14.95a6.88,6.88,0,0,0-.48-2.49,7,7,0,0,0-1.42-2.24,7.18,7.18,0,0,0-2.39-1.66,7.9,7.9,0,0,0-3.32-.66,9.08,9.08,0,0,0-3.56.66,8.13,8.13,0,0,0-2.59,1.66,7.18,7.18,0,0,0-1.59,2.24,6.08,6.08,0,0,0-.56,2.49Z"/><path d="M215.17,201.54h8.16v25.18L235,215.24h9.62l-12.18,12L246,247.68h-9.75l-9.41-14.94-3.53,3.46v11.48h-8.16Z"/><path d="M252.38,221.88h-5.53v-6.64h5.53V204.72h8.17v10.52h8.71v6.64h-8.71v14.18a8,8,0,0,0,.93,4.25,3.27,3.27,0,0,0,3,1.49,7.14,7.14,0,0,0,3.08-.55,13.91,13.91,0,0,0,2.18-1.32l3.46,5a16.4,16.4,0,0,1-4.78,2.87,15.06,15.06,0,0,1-5.25.87,13,13,0,0,1-5.05-.87,8.2,8.2,0,0,1-3.36-2.45,9.79,9.79,0,0,1-1.83-3.84,20.65,20.65,0,0,1-.56-4.95Z"/><path class="cls-1" d="M136.72,64.39c.06-1,.13-2,.23-3a.49.49,0,0,1,0-.12c.1-1,.23-2,.38-3l.12-.81c.15-.91.31-1.81.49-2.7,0-.1,0-.2.05-.3.2-.95.42-1.89.66-2.83.07-.3.15-.59.23-.89q.31-1.17.66-2.34l.18-.6c.27-.86.56-1.7.86-2.54.12-.34.24-.67.37-1,.24-.65.5-1.29.76-1.92l.45-1.1c.3-.69.61-1.37.93-2,.19-.39.37-.77.56-1.15l.75-1.47c.3-.57.61-1.13.92-1.69s.55-1,.83-1.44.52-.87.79-1.3.44-.69.67-1c.5-.78,1-1.55,1.56-2.3.19-.26.37-.53.56-.78.34-.48.7-.95,1.06-1.41l.51-.65c.78-1,1.58-1.95,2.41-2.89l.08-.09c.44-.5.9-1,1.36-1.48l.31-.33c1.43-1.51,2.94-2.95,4.5-4.32l.14-.11q2.44-2.13,5.08-4h0q2.69-1.92,5.55-3.58a68.24,68.24,0,0,0-68.3,0c1.91,1.11,3.77,2.3,5.56,3.58h0q2.64,1.89,5.09,4l.13.11q2.35,2.06,4.51,4.32l.31.33c.46.48.91,1,1.36,1.48l.07.09c.83.94,1.64,1.9,2.42,2.89l.51.65c.36.46.71.93,1.06,1.41.19.25.37.52.55.78.54.75,1.06,1.52,1.57,2.3l.66,1c.27.43.53.86.79,1.3s.56,1,.84,1.44.61,1.12.91,1.69.51,1,.76,1.47.37.76.55,1.15c.32.68.63,1.36.93,2,.16.37.31.73.46,1.1q.39.95.75,1.92c.13.33.25.66.38,1,.3.84.59,1.68.85,2.54.07.2.12.4.19.6q.34,1.17.66,2.34l.23.89c.23.94.46,1.88.65,2.83l.06.3q.27,1.34.48,2.7c0,.27.09.54.13.81.14,1,.27,2,.38,3a.49.49,0,0,0,0,.12c.1,1,.17,2,.22,3,0,.26,0,.52,0,.79,0,1,.08,2.07.08,3.12,0-1,0-2.09.08-3.12,0-.27,0-.53,0-.79"/><path class="cls-1" d="M136.48,72.22c0,1-.12,2-.22,3a.57.57,0,0,0,0,.13c-.11,1-.24,2-.38,3,0,.27-.09.54-.13.82-.14.9-.3,1.8-.48,2.69l-.06.3c-.19.95-.42,1.89-.65,2.83l-.23.89c-.21.79-.43,1.56-.66,2.34-.07.2-.12.4-.19.6-.26.86-.55,1.7-.85,2.54l-.38,1q-.36,1-.75,1.92c-.15.36-.3.73-.46,1.09-.3.69-.61,1.37-.93,2-.18.39-.37.77-.55,1.15s-.5,1-.76,1.47-.6,1.13-.91,1.69-.55,1-.84,1.45-.52.86-.79,1.29-.44.69-.66,1c-.51.78-1,1.55-1.57,2.31l-.55.78c-.35.47-.7.94-1.06,1.4l-.51.65c-.78,1-1.59,2-2.42,2.9l-.07.08c-.45.51-.9,1-1.36,1.49l-.31.32q-2.16,2.26-4.51,4.32l-.13.11q-2.44,2.13-5.09,4h0c-1.79,1.28-3.65,2.48-5.56,3.58a68.24,68.24,0,0,0,68.3,0c-1.91-1.1-3.76-2.3-5.55-3.58h0c-1.76-1.26-3.45-2.6-5.09-4l-.13-.11c-1.56-1.37-3.07-2.81-4.5-4.32l-.31-.32c-.46-.49-.92-1-1.36-1.49l-.08-.08c-.83-1-1.63-1.91-2.41-2.9l-.51-.65c-.36-.46-.72-.93-1.06-1.4l-.56-.78c-.53-.76-1.06-1.53-1.56-2.31-.23-.34-.45-.68-.67-1s-.53-.86-.79-1.29l-.83-1.45c-.31-.56-.62-1.12-.92-1.69s-.51-1-.75-1.47-.37-.76-.56-1.15c-.32-.68-.63-1.36-.93-2l-.45-1.09c-.26-.64-.52-1.28-.76-1.92-.13-.34-.25-.67-.37-1-.3-.84-.59-1.68-.86-2.54l-.18-.6c-.24-.78-.45-1.55-.66-2.34-.08-.3-.16-.59-.23-.89-.24-.94-.46-1.88-.66-2.83,0-.1,0-.2-.05-.3-.18-.89-.34-1.79-.48-2.69-.05-.28-.09-.55-.13-.82-.15-1-.28-2-.38-3a.57.57,0,0,1,0-.13c-.1-1-.17-2-.23-3,0-.27,0-.53,0-.8-.05-1-.08-2.07-.08-3.12,0,1,0,2.09-.08,3.12,0,.27,0,.53,0,.8"/><path class="cls-2" d="M204.9,0a67.93,67.93,0,0,0-34.15,9.16,68.28,68.28,0,0,1,0,118.28A68.3,68.3,0,1,0,204.9,0"/><path class="cls-3" d="M68.3,68.3A68.25,68.25,0,0,1,102.45,9.16,68.3,68.3,0,1,0,68.3,136.6a67.9,67.9,0,0,0,34.15-9.16A68.25,68.25,0,0,1,68.3,68.3"/></g></g></svg>