<svg id="Ebene_2" data-name="Ebene 2" xmlns="http://www.w3.org/2000/svg" viewBox="0 0 577 268"><defs><style>.cls-1{fill:#3753ff;}.cls-2{fill:none;stroke:#2be282;stroke-linecap:round;stroke-linejoin:round;stroke-width:16px;}</style></defs><path class="cls-1" d="M66.39,143.22a23,23,0,0,1-9.58-9,26.07,26.07,0,0,1-3.37-13.37V96.52a26.08,26.08,0,0,1,3.37-13.38,22.72,22.72,0,0,1,9.58-9A31.48,31.48,0,0,1,80.81,71a32.19,32.19,0,0,1,14.27,3,22.73,22.73,0,0,1,9.59,8.53,23.83,23.83,0,0,1,3.42,12.8c0,.63-.42,1-1.27,1.16l-12.32.73h-.21c-.7,0-1.05-.38-1.05-1.16a12,12,0,0,0-3.42-9,12.32,12.32,0,0,0-9-3.37,12.42,12.42,0,0,0-9.1,3.37,12,12,0,0,0-3.43,9v25.38a11.85,11.85,0,0,0,3.43,8.85,12.42,12.42,0,0,0,9.1,3.37,12.32,12.32,0,0,0,9-3.37,11.88,11.88,0,0,0,3.42-8.85c0-.77.42-1.16,1.26-1.16l12.32.53a1.31,1.31,0,0,1,.9.32,1,1,0,0,1,.37.73,24.08,24.08,0,0,1-3.42,12.85,22.89,22.89,0,0,1-9.59,8.63,31.65,31.65,0,0,1-14.27,3.06A31,31,0,0,1,66.39,143.22Z"/><path class="cls-1" d="M126.72,141.79a23.1,23.1,0,0,1-8.63-12.63,37.58,37.58,0,0,1-1.47-10.74,39.18,39.18,0,0,1,1.47-11.16A22.61,22.61,0,0,1,126.83,95,25.76,25.76,0,0,1,142,90.62,24.67,24.67,0,0,1,156.73,95a23.35,23.35,0,0,1,8.64,12.16,36.18,36.18,0,0,1,1.68,11.06,37.16,37.16,0,0,1-1.47,10.63,23.58,23.58,0,0,1-8.58,12.9,24.49,24.49,0,0,1-15.11,4.69A25,25,0,0,1,126.72,141.79Zm21.06-10.21a11.62,11.62,0,0,0,3.48-5.79,30.44,30.44,0,0,0,.84-7.37,28.62,28.62,0,0,0-.84-7.48,11.71,11.71,0,0,0-3.58-5.58,9.78,9.78,0,0,0-11.85,0,11.21,11.21,0,0,0-3.42,5.58,25.2,25.2,0,0,0-.84,7.48,28.8,28.8,0,0,0,.73,7.37,11.55,11.55,0,0,0,3.53,5.79,9,9,0,0,0,6.06,2.11A8.63,8.63,0,0,0,147.78,131.58Z"/><path class="cls-1" d="M278.69,121.89a1.24,1.24,0,0,1-1.37,1.27H244.78c-.42,0-.56.17-.42.52a18.24,18.24,0,0,0,1.16,4.21q2.73,5.91,11.16,5.9a12.7,12.7,0,0,0,10.63-5.47,1.17,1.17,0,0,1,.95-.64,1.18,1.18,0,0,1,.74.43l7.58,7.47a1.47,1.47,0,0,1,.53.95,2.25,2.25,0,0,1-.43.84,22.91,22.91,0,0,1-8.95,6.69,29.89,29.89,0,0,1-12,2.37q-9.06,0-15.32-4.11a22.75,22.75,0,0,1-9-11.48q-2.22-5.27-2.22-13.79a30.43,30.43,0,0,1,1.58-10.22,23.12,23.12,0,0,1,8.48-11.89,23.71,23.71,0,0,1,14.37-4.43q10.53,0,16.9,6.11t7.74,16.32A44.64,44.64,0,0,1,278.69,121.89ZM245,109.57a25.24,25.24,0,0,0-.74,3.37.47.47,0,0,0,.53.53H263c.42,0,.56-.18.42-.53-.36-2-.53-3-.53-3a9.1,9.1,0,0,0-3.32-4.89,9.58,9.58,0,0,0-5.84-1.74Q247.1,103.36,245,109.57Z"/><path class="cls-1" d="M322,92.2a1.31,1.31,0,0,1,.63,1.58l-2.21,12c-.07.84-.56,1.09-1.47.74a11.68,11.68,0,0,0-3.69-.53,17.36,17.36,0,0,0-2.31.21,10.37,10.37,0,0,0-6.43,2.79,8.63,8.63,0,0,0-2.63,6.58v28.75a1.25,1.25,0,0,1-1.26,1.26H290.27a1.25,1.25,0,0,1-.9-.36,1.22,1.22,0,0,1-.37-.9V92.72a1.2,1.2,0,0,1,.37-.89,1.22,1.22,0,0,1,.9-.37h12.32a1.19,1.19,0,0,1,.89.37,1.2,1.2,0,0,1,.37.89v4a.42.42,0,0,0,.21.42.21.21,0,0,0,.32-.11A13.37,13.37,0,0,1,316,90.72,10.69,10.69,0,0,1,322,92.2Z"/><path class="cls-1" d="M332.54,83a8.06,8.06,0,0,1-2.36-6,8.32,8.32,0,1,1,16.63,0,8.42,8.42,0,0,1-14.27,6Zm-1.26,62.24a1.22,1.22,0,0,1-.37-.9V92.62a1.22,1.22,0,0,1,.37-.9,1.24,1.24,0,0,1,.9-.36H344.5a1.25,1.25,0,0,1,1.26,1.26v51.7a1.25,1.25,0,0,1-1.26,1.26H332.18A1.24,1.24,0,0,1,331.28,145.22Z"/><path class="cls-1" d="M390.25,91.72a1.26,1.26,0,0,1,.37.9v10a1.26,1.26,0,0,1-1.27,1.27H379.14a.46.46,0,0,0-.53.52v39.91a1.25,1.25,0,0,1-1.26,1.26H365a1.23,1.23,0,0,1-1.26-1.26V104.41a.46.46,0,0,0-.53-.52H357a1.25,1.25,0,0,1-.9-.37,1.22,1.22,0,0,1-.37-.9v-10a1.22,1.22,0,0,1,.37-.9,1.24,1.24,0,0,1,.9-.36h6.21a.47.47,0,0,0,.53-.53V88.51q0-6.53,2-10.16a11.14,11.14,0,0,1,6.47-5.16q4.47-1.53,12.37-1.31h4a1.25,1.25,0,0,1,1.26,1.26v8.53a1.19,1.19,0,0,1-.37.89,1.2,1.2,0,0,1-.89.37h-3.48q-3.69.1-5.11,1.53c-.94,1-1.42,2.68-1.42,5.21v1.16a.47.47,0,0,0,.53.53h10.21A1.25,1.25,0,0,1,390.25,91.72ZM401.3,83a8.65,8.65,0,1,1,5.95,2.37A8.1,8.1,0,0,1,401.3,83ZM400,145.22a1.22,1.22,0,0,1-.37-.9V92.62a1.22,1.22,0,0,1,.37-.9,1.24,1.24,0,0,1,.9-.36h12.32a1.25,1.25,0,0,1,1.26,1.26v51.7a1.25,1.25,0,0,1-1.26,1.26H400.94A1.24,1.24,0,0,1,400,145.22Z"/><path class="cls-1" d="M475.49,121.89a1.23,1.23,0,0,1-1.37,1.27H441.58c-.42,0-.56.17-.42.52a18.75,18.75,0,0,0,1.16,4.21q2.73,5.91,11.16,5.9a12.72,12.72,0,0,0,10.64-5.47,1.14,1.14,0,0,1,.94-.64,1.18,1.18,0,0,1,.74.43l7.58,7.47a1.47,1.47,0,0,1,.53.95,2.16,2.16,0,0,1-.42.84,23,23,0,0,1-8.95,6.69,30,30,0,0,1-12,2.37q-9.06,0-15.32-4.11a22.75,22.75,0,0,1-9-11.48Q426,125.57,426,117.05a30.18,30.18,0,0,1,1.58-10.22,23.11,23.11,0,0,1,8.47-11.89,23.72,23.72,0,0,1,14.38-4.43q10.53,0,16.9,6.11t7.74,16.32A45.43,45.43,0,0,1,475.49,121.89Zm-33.7-12.32a26.92,26.92,0,0,0-.74,3.37.47.47,0,0,0,.53.53H459.8c.42,0,.56-.18.42-.53-.35-2-.53-3-.53-3a9.09,9.09,0,0,0-3.31-4.89,9.62,9.62,0,0,0-5.85-1.74Q443.9,103.36,441.79,109.57Z"/><path class="cls-1" d="M519.76,72.24a1.25,1.25,0,0,1,.9-.36H533a1.23,1.23,0,0,1,1.26,1.26v71.18a1.23,1.23,0,0,1-1.26,1.26H520.66a1.23,1.23,0,0,1-1.26-1.26v-3.47c0-.21-.07-.34-.21-.37a.44.44,0,0,0-.43.16,14.39,14.39,0,0,1-12.1,5.79A20.12,20.12,0,0,1,494,142.32a22.57,22.57,0,0,1-7.64-11.27,41.12,41.12,0,0,1-1.79-12.74,40.54,40.54,0,0,1,1.9-13.06,22.61,22.61,0,0,1,7.63-10.68A20.72,20.72,0,0,1,507,90.62q7.59,0,11.79,5.26c.14.21.28.29.43.21a.42.42,0,0,0,.21-.42V73.14A1.25,1.25,0,0,1,519.76,72.24Zm-.47,46.28q0-7-2.32-11a7.71,7.71,0,0,0-7.05-4.11,8.24,8.24,0,0,0-7.48,4.11c-1.75,2.73-2.63,6.46-2.63,11.16A22.56,22.56,0,0,0,502,129.16a8.48,8.48,0,0,0,7.79,4.53q4.74,0,7.38-4.53Q519.29,125.26,519.29,118.52Z"/><polyline class="cls-2" points="183.61 98 199.98 138.32 227.73 61.16"/><path class="cls-1" d="M70,200.76,64.29,188.5a.15.15,0,0,0-.16-.12H58.22a.14.14,0,0,0-.16.16v12.1a.37.37,0,0,1-.41.41H54.53a.37.37,0,0,1-.41-.41V172.76a.37.37,0,0,1,.41-.41h11a8.88,8.88,0,0,1,4.33,1,7.26,7.26,0,0,1,2.89,2.87,8.67,8.67,0,0,1,1,4.27,7.85,7.85,0,0,1-1.49,4.86,7.37,7.37,0,0,1-4.16,2.68c-.11.06-.14.12-.09.21l6,12.3a.4.4,0,0,1,0,.2c0,.19-.11.29-.33.29H70.48A.45.45,0,0,1,70,200.76Zm-12-24.84v9.18a.14.14,0,0,0,.16.16h6.85A4.77,4.77,0,0,0,68.56,184a4.6,4.6,0,0,0,1.31-3.42,4.51,4.51,0,0,0-4.8-4.8H58.22A.15.15,0,0,0,58.06,175.92Z"/><path class="cls-1" d="M95.74,191.78a.36.36,0,0,1-.41.41H82.25c-.11,0-.16.06-.16.17a7.24,7.24,0,0,0,.24,2.13,4.36,4.36,0,0,0,1.83,2.56,6,6,0,0,0,3.46.92,5.28,5.28,0,0,0,4.68-2.5c.13-.27.31-.31.53-.12l2.34,1.56a.38.38,0,0,1,.12.53A8,8,0,0,1,92,200.35a10.47,10.47,0,0,1-4.78,1.07,9.14,9.14,0,0,1-5-1.32,8,8,0,0,1-3.08-3.73,15.65,15.65,0,0,1-1-5.86A17.45,17.45,0,0,1,78.6,186a7.83,7.83,0,0,1,3-4.47,8.81,8.81,0,0,1,5.37-1.64c2.77,0,4.83.69,6.2,2.07a10,10,0,0,1,2.5,6.09A31.87,31.87,0,0,1,95.74,191.78ZM84,184.14a4.31,4.31,0,0,0-1.55,2.35,9,9,0,0,0-.37,2.3.14.14,0,0,0,.16.16h9.39a.14.14,0,0,0,.16-.16,11.66,11.66,0,0,0-.24-2A4.93,4.93,0,0,0,84,184.14Z"/><path class="cls-1" d="M114,172.35h3.12a.37.37,0,0,1,.41.41v27.88a.37.37,0,0,1-.41.41H114a.36.36,0,0,1-.4-.41v-1.35a.16.16,0,0,0-.07-.13s-.09,0-.14,0a6.32,6.32,0,0,1-4.8,2.18,8,8,0,0,1-4.9-1.46,8.32,8.32,0,0,1-2.85-4.12,15.62,15.62,0,0,1-.78-5.25,16.55,16.55,0,0,1,.66-5,8.35,8.35,0,0,1,2.83-4.22,8,8,0,0,1,5-1.52,6.65,6.65,0,0,1,2.65.55,6.22,6.22,0,0,1,2.15,1.58c0,.06.1.07.14,0a.13.13,0,0,0,.07-.12v-9.14A.36.36,0,0,1,114,172.35Zm-.49,18.24a10.9,10.9,0,0,0-1-5.25,3.81,3.81,0,0,0-3.49-2.09,4,4,0,0,0-3.65,2,10,10,0,0,0-1.31,5.41,10.78,10.78,0,0,0,1,5.09A4.07,4.07,0,0,0,109,198a3.92,3.92,0,0,0,3.61-2.21A11.07,11.07,0,0,0,113.53,190.59Z"/><path class="cls-1" d="M140.31,191.78a.36.36,0,0,1-.41.41H126.82a.15.15,0,0,0-.17.17,6.86,6.86,0,0,0,.25,2.13,4.39,4.39,0,0,0,1.82,2.56,6.06,6.06,0,0,0,3.47.92,5.25,5.25,0,0,0,4.67-2.5q.21-.41.54-.12l2.33,1.56a.38.38,0,0,1,.12.53,7.94,7.94,0,0,1-3.25,2.91,10.47,10.47,0,0,1-4.78,1.07,9.09,9.09,0,0,1-5-1.32,7.91,7.91,0,0,1-3.08-3.73,15.45,15.45,0,0,1-1-5.86,17.45,17.45,0,0,1,.45-4.55,7.78,7.78,0,0,1,3-4.47,8.81,8.81,0,0,1,5.37-1.64q4.14,0,6.19,2.07a9.94,9.94,0,0,1,2.5,6.09A34,34,0,0,1,140.31,191.78Zm-11.73-7.64a4.28,4.28,0,0,0-1.56,2.35,10,10,0,0,0-.37,2.3c0,.11.06.16.17.16h9.39a.14.14,0,0,0,.16-.16,12.52,12.52,0,0,0-.25-2,4.59,4.59,0,0,0-1.62-2.56,4.68,4.68,0,0,0-3-1A4.63,4.63,0,0,0,128.58,184.14Z"/><path class="cls-1" d="M151.62,176.57a4.37,4.37,0,0,0-.74,3V180a.15.15,0,0,0,.17.17h4.3a.36.36,0,0,1,.41.41v2.79a.36.36,0,0,1-.41.41h-4.3c-.11,0-.17.05-.17.16v16.69a.36.36,0,0,1-.41.41h-3.11a.36.36,0,0,1-.41-.41V184c0-.11-.06-.16-.17-.16H144a.36.36,0,0,1-.41-.41v-2.79a.36.36,0,0,1,.41-.41h2.74A.15.15,0,0,0,147,180v-.73a11,11,0,0,1,.63-4.19,3.92,3.92,0,0,1,2.16-2.11,11.45,11.45,0,0,1,4.26-.63h1.39a.36.36,0,0,1,.41.41v2.62a.36.36,0,0,1-.41.41h-1A3.81,3.81,0,0,0,151.62,176.57Zm9.14-.41a2.78,2.78,0,1,1,1.89.74A2.55,2.55,0,0,1,160.76,176.16Zm-.16,24.44v-20a.37.37,0,0,1,.41-.41h3.12a.37.37,0,0,1,.41.41v20a.37.37,0,0,1-.41.41H161A.37.37,0,0,1,160.6,200.6Z"/><path class="cls-1" d="M185.32,181.84a7,7,0,0,1,2,5.27v13.53a.37.37,0,0,1-.41.41h-3.11a.36.36,0,0,1-.41-.41V187.89a4.66,4.66,0,0,0-1.19-3.32,4.14,4.14,0,0,0-3.16-1.28,4.2,4.2,0,0,0-3.16,1.28,4.51,4.51,0,0,0-1.23,3.28v12.79a.36.36,0,0,1-.41.41H171.1a.36.36,0,0,1-.41-.41v-20a.36.36,0,0,1,.41-.41h3.11a.36.36,0,0,1,.41.41v1.47a.15.15,0,0,0,.06.13s.08,0,.11,0a6.18,6.18,0,0,1,5.2-2.26A7.24,7.24,0,0,1,185.32,181.84Z"/><path class="cls-1" d="M193.36,176.16a2.77,2.77,0,1,1,1.89.74A2.56,2.56,0,0,1,193.36,176.16Zm-.16,24.44v-20a.36.36,0,0,1,.4-.41h3.12a.37.37,0,0,1,.41.41v20a.37.37,0,0,1-.41.41H193.6A.36.36,0,0,1,193.2,200.6Z"/><path class="cls-1" d="M217.92,181.84a7.08,7.08,0,0,1,2,5.27v13.53a.37.37,0,0,1-.41.41h-3.12a.37.37,0,0,1-.41-.41V187.89a4.66,4.66,0,0,0-1.19-3.32,4.11,4.11,0,0,0-3.16-1.28,4.19,4.19,0,0,0-3.15,1.28,4.51,4.51,0,0,0-1.23,3.28v12.79a.37.37,0,0,1-.41.41h-3.12a.37.37,0,0,1-.41-.41v-20a.37.37,0,0,1,.41-.41h3.12a.37.37,0,0,1,.41.41v1.47a.15.15,0,0,0,.06.13s.07,0,.1,0a6.2,6.2,0,0,1,5.21-2.26A7.24,7.24,0,0,1,217.92,181.84Z"/><path class="cls-1" d="M238.7,180.18h3.12a.37.37,0,0,1,.41.41V200c0,3.31-.94,5.67-2.81,7.1a12.14,12.14,0,0,1-7.52,2.13c-.44,0-1.12,0-2.05-.09a.39.39,0,0,1-.41-.45l.12-2.83a.39.39,0,0,1,.12-.28.35.35,0,0,1,.33-.08c.38,0,1,0,1.68,0q3.5,0,5.05-1.29c1-.87,1.55-2.32,1.55-4.37v-.74a.14.14,0,0,0-.06-.12s-.09,0-.14,0a6.28,6.28,0,0,1-5,2,8.66,8.66,0,0,1-4.82-1.4,7.09,7.09,0,0,1-3-4.1,18.18,18.18,0,0,1-.54-5,17.36,17.36,0,0,1,.62-5.25,7.72,7.72,0,0,1,2.77-4,7.56,7.56,0,0,1,4.69-1.5,6.91,6.91,0,0,1,5.29,2.05c0,.06.1.08.14.06s.06,0,.06-.1v-1.27A.37.37,0,0,1,238.7,180.18ZM238.23,193q.06-.74.06-2.46c0-1.15,0-2-.06-2.44a8.52,8.52,0,0,0-.22-1.37,4.55,4.55,0,0,0-7.22-2.48,5.34,5.34,0,0,0-1.64,2.48,11.9,11.9,0,0,0-.45,3.81,12.15,12.15,0,0,0,.41,3.86,4.63,4.63,0,0,0,1.62,2.48,4.57,4.57,0,0,0,2.93,1,4.36,4.36,0,0,0,2.93-1,4.44,4.44,0,0,0,1.46-2.48C238.13,193.93,238.19,193.46,238.23,193Z"/><path class="cls-1" d="M260.33,200.25a8.42,8.42,0,0,1-3.52-3.32,9.6,9.6,0,0,1-1.25-4.94V181.37a9.38,9.38,0,0,1,1.25-4.9,8.46,8.46,0,0,1,3.52-3.28,11.29,11.29,0,0,1,5.23-1.17,11.54,11.54,0,0,1,5.21,1.13,8.37,8.37,0,0,1,3.5,3.18,9,9,0,0,1,1.25,4.75v0a.45.45,0,0,1-.12.33.4.4,0,0,1-.29.12l-3.11.17c-.28,0-.41-.13-.41-.37v-.12A5.66,5.66,0,0,0,270,177a6.06,6.06,0,0,0-4.39-1.6,6.13,6.13,0,0,0-4.41,1.6,5.6,5.6,0,0,0-1.66,4.23v10.9a5.57,5.57,0,0,0,1.66,4.22,6.08,6.08,0,0,0,4.41,1.6,6,6,0,0,0,4.39-1.6,5.63,5.63,0,0,0,1.64-4.22v-.08c0-.25.13-.37.41-.37l3.11.16a.36.36,0,0,1,.41.41,9.09,9.09,0,0,1-1.25,4.78,8.52,8.52,0,0,1-3.5,3.22,11.42,11.42,0,0,1-5.21,1.15A11.29,11.29,0,0,1,260.33,200.25Z"/><path class="cls-1" d="M283.93,199.84a8,8,0,0,1-3.16-4.29,15.79,15.79,0,0,1-.74-5,15,15,0,0,1,.7-4.92,8,8,0,0,1,3.16-4.24,9.25,9.25,0,0,1,5.37-1.54,8.68,8.68,0,0,1,5.14,1.54,8.39,8.39,0,0,1,3.14,4.2,14.81,14.81,0,0,1,.74,4.92,15.69,15.69,0,0,1-.74,5,8.11,8.11,0,0,1-3.12,4.29,8.91,8.91,0,0,1-5.2,1.54A9.18,9.18,0,0,1,283.93,199.84Zm8.16-2.79a5,5,0,0,0,1.76-2.6,14.15,14.15,0,0,0,.45-3.86,15,15,0,0,0-.41-3.81,5,5,0,0,0-1.76-2.6,4.83,4.83,0,0,0-3-.93,4.69,4.69,0,0,0-2.91.93,5,5,0,0,0-1.76,2.6,13.14,13.14,0,0,0-.45,3.81,13.61,13.61,0,0,0,.45,3.86,4.79,4.79,0,0,0,1.74,2.6,4.92,4.92,0,0,0,3,.92A4.63,4.63,0,0,0,292.09,197.05Z"/><path class="cls-1" d="M330,181.76a7.14,7.14,0,0,1,1.8,5.18v13.7a.36.36,0,0,1-.41.41h-3.07a.37.37,0,0,1-.41-.41V187.76a4.62,4.62,0,0,0-1.13-3.26,3.93,3.93,0,0,0-3-1.21,4.19,4.19,0,0,0-3.08,1.19,4.35,4.35,0,0,0-1.19,3.2v13a.36.36,0,0,1-.41.41H316a.37.37,0,0,1-.41-.41V187.76a4.62,4.62,0,0,0-1.13-3.26,4.38,4.38,0,0,0-6,0,4.44,4.44,0,0,0-1.13,3.2v13a.37.37,0,0,1-.41.41h-3.12a.37.37,0,0,1-.41-.41v-20a.37.37,0,0,1,.41-.41h3.12a.37.37,0,0,1,.41.41V182a.15.15,0,0,0,.06.13s.09,0,.14-.05a6.46,6.46,0,0,1,5.25-2.17,7.47,7.47,0,0,1,3.57.8,5.5,5.5,0,0,1,2.29,2.36c.09.11.17.11.25,0a6.14,6.14,0,0,1,2.6-2.38,8.18,8.18,0,0,1,3.59-.78A6.5,6.5,0,0,1,330,181.76Z"/><path class="cls-1" d="M363.84,181.76a7.14,7.14,0,0,1,1.8,5.18v13.7a.37.37,0,0,1-.41.41h-3.08a.37.37,0,0,1-.41-.41V187.76a4.61,4.61,0,0,0-1.12-3.26,4,4,0,0,0-3-1.21,4.17,4.17,0,0,0-3.07,1.19,4.35,4.35,0,0,0-1.19,3.2v13a.37.37,0,0,1-.41.41h-3.08a.37.37,0,0,1-.41-.41V187.76a4.61,4.61,0,0,0-1.12-3.26,4.39,4.39,0,0,0-6,0,4.48,4.48,0,0,0-1.13,3.2v13a.36.36,0,0,1-.41.41h-3.11a.36.36,0,0,1-.41-.41v-20a.36.36,0,0,1,.41-.41h3.11a.36.36,0,0,1,.41.41V182a.15.15,0,0,0,.06.13s.09,0,.15-.05a6.45,6.45,0,0,1,5.25-2.17,7.4,7.4,0,0,1,3.56.8,5.52,5.52,0,0,1,2.3,2.36q.12.16.24,0a6.16,6.16,0,0,1,2.61-2.38,8.15,8.15,0,0,1,3.59-.78A6.53,6.53,0,0,1,363.84,181.76Z"/><path class="cls-1" d="M383.88,180.18H387a.37.37,0,0,1,.41.41v20a.37.37,0,0,1-.41.41h-3.08a.37.37,0,0,1-.41-.41v-1.52a.09.09,0,0,0-.06-.1s-.09,0-.14.06a5.83,5.83,0,0,1-5,2.25,8.77,8.77,0,0,1-3.71-.77,6.28,6.28,0,0,1-3.76-6v-14a.37.37,0,0,1,.41-.41h3.08a.37.37,0,0,1,.41.41v12.75a4.75,4.75,0,0,0,1.13,3.36,4.08,4.08,0,0,0,3.17,1.23,4.36,4.36,0,0,0,3.28-1.25,4.56,4.56,0,0,0,1.23-3.34V180.59A.37.37,0,0,1,383.88,180.18Z"/><path class="cls-1" d="M407.7,181.84a7,7,0,0,1,2,5.27v13.53a.36.36,0,0,1-.41.41h-3.11a.36.36,0,0,1-.41-.41V187.89a4.66,4.66,0,0,0-1.19-3.32,4.14,4.14,0,0,0-3.16-1.28,4.21,4.21,0,0,0-3.16,1.28,4.51,4.51,0,0,0-1.23,3.28v12.79a.36.36,0,0,1-.41.41h-3.11a.36.36,0,0,1-.41-.41v-20a.36.36,0,0,1,.41-.41h3.11a.36.36,0,0,1,.41.41v1.47a.14.14,0,0,0,.07.13s.07,0,.1,0a6.18,6.18,0,0,1,5.2-2.26A7.22,7.22,0,0,1,407.7,181.84Z"/><path class="cls-1" d="M415.74,176.16a2.77,2.77,0,1,1,1.89.74A2.56,2.56,0,0,1,415.74,176.16Zm-.16,24.44v-20a.36.36,0,0,1,.41-.41h3.11a.36.36,0,0,1,.41.41v20a.36.36,0,0,1-.41.41H416A.36.36,0,0,1,415.58,200.6Z"/><path class="cls-1" d="M428.7,199.8a7.91,7.91,0,0,1-3-4.29,16.39,16.39,0,0,1-.61-5,18,18,0,0,1,.61-5,7.82,7.82,0,0,1,3.06-4.18,9,9,0,0,1,5.31-1.56,9.32,9.32,0,0,1,5.37,1.56,7.11,7.11,0,0,1,3,3.93,6.28,6.28,0,0,1,.33,1.36c0,.22-.12.35-.37.41l-3.08.45h-.08c-.19,0-.33-.12-.41-.37l-.12-.66a4,4,0,0,0-1.6-2.33,5,5,0,0,0-3.07-.95,4.78,4.78,0,0,0-3,.95,4.32,4.32,0,0,0-1.6,2.5,20.48,20.48,0,0,0,0,7.75A4.64,4.64,0,0,0,431,197a4.7,4.7,0,0,0,3,.94,5.08,5.08,0,0,0,3.09-.94,4,4,0,0,0,1.62-2.46.09.09,0,0,0,0-.1s0-.08,0-.1v-.17a.34.34,0,0,1,.45-.24l3.08.49c.22.05.33.16.33.32v.17a2.55,2.55,0,0,1-.21.9,6.91,6.91,0,0,1-3,4,9.53,9.53,0,0,1-5.37,1.52A8.94,8.94,0,0,1,428.7,199.8Z"/><path class="cls-1" d="M459.18,180.73a6.74,6.74,0,0,1,2.87,2.46,6.56,6.56,0,0,1,1,3.59v13.86a.36.36,0,0,1-.41.41h-3.11a.36.36,0,0,1-.41-.41v-1.48c0-.13-.07-.16-.21-.08a7,7,0,0,1-2.6,1.7,9.34,9.34,0,0,1-3.42.6,8,8,0,0,1-5-1.54,5.54,5.54,0,0,1-2-4.66,6.13,6.13,0,0,1,2.23-5,9.66,9.66,0,0,1,6.25-1.82H459a.15.15,0,0,0,.17-.17v-1.1a3.7,3.7,0,0,0-1.05-2.81,4.41,4.41,0,0,0-3.18-1,5.23,5.23,0,0,0-2.8.68,2.8,2.8,0,0,0-1.34,1.82c-.08.28-.24.4-.49.37l-3.32-.45c-.27,0-.4-.16-.37-.33a5.58,5.58,0,0,1,2.58-4,9.8,9.8,0,0,1,5.66-1.54A10.09,10.09,0,0,1,459.18,180.73Zm-1.66,16.18a3.48,3.48,0,0,0,1.6-2.91v-2.42a.15.15,0,0,0-.17-.17H455.1a6.9,6.9,0,0,0-3.85,1,3,3,0,0,0-1.44,2.62,2.64,2.64,0,0,0,1.09,2.3,4.83,4.83,0,0,0,2.85.77A6.33,6.33,0,0,0,457.52,196.91Z"/><path class="cls-1" d="M478.22,183.42H473.8c-.11,0-.17.05-.17.16v10.87a2.78,2.78,0,0,0,3.2,3.24H478a.36.36,0,0,1,.41.41v2.54a.37.37,0,0,1-.41.41c-.88,0-1.51.08-1.89.08a8.05,8.05,0,0,1-4.69-1.13c-1.05-.75-1.58-2.14-1.58-4.16V183.58a.14.14,0,0,0-.16-.16h-2.51a.37.37,0,0,1-.41-.41v-2.42a.37.37,0,0,1,.41-.41h2.51a.15.15,0,0,0,.16-.17v-4.83a.36.36,0,0,1,.41-.41h3a.36.36,0,0,1,.41.41V180a.15.15,0,0,0,.17.17h4.42a.36.36,0,0,1,.41.41V183A.36.36,0,0,1,478.22,183.42Z"/><path class="cls-1" d="M483.92,176.16a2.67,2.67,0,0,1,3.77-3.77,2.77,2.77,0,0,1,0,3.77,2.77,2.77,0,0,1-3.77,0Zm-.16,24.44v-20a.36.36,0,0,1,.41-.41h3.11a.36.36,0,0,1,.41.41v20a.36.36,0,0,1-.41.41h-3.11A.36.36,0,0,1,483.76,200.6Z"/><path class="cls-1" d="M497.08,199.84a8.06,8.06,0,0,1-3.15-4.29,15.51,15.51,0,0,1-.74-5,15.27,15.27,0,0,1,.69-4.92,8.12,8.12,0,0,1,3.16-4.24,9.25,9.25,0,0,1,5.37-1.54,8.71,8.71,0,0,1,5.15,1.54,8.32,8.32,0,0,1,3.13,4.2,14.56,14.56,0,0,1,.74,4.92,15.42,15.42,0,0,1-.74,5,8.15,8.15,0,0,1-3.11,4.29,9,9,0,0,1-5.21,1.54A9.22,9.22,0,0,1,497.08,199.84Zm8.16-2.79a5,5,0,0,0,1.76-2.6,14.11,14.11,0,0,0,.46-3.86,15,15,0,0,0-.41-3.81,5.06,5.06,0,0,0-1.77-2.6,4.82,4.82,0,0,0-3-.93,4.69,4.69,0,0,0-2.91.93,5,5,0,0,0-1.76,2.6,12.8,12.8,0,0,0-.45,3.81,13.26,13.26,0,0,0,.45,3.86,4.69,4.69,0,0,0,1.74,2.6,4.89,4.89,0,0,0,3,.92A4.63,4.63,0,0,0,505.24,197.05Z"/><path class="cls-1" d="M531.19,181.84a7,7,0,0,1,2,5.27v13.53a.36.36,0,0,1-.41.41h-3.11a.36.36,0,0,1-.41-.41V187.89a4.66,4.66,0,0,0-1.19-3.32,4.14,4.14,0,0,0-3.16-1.28,4.21,4.21,0,0,0-3.16,1.28,4.51,4.51,0,0,0-1.23,3.28v12.79a.36.36,0,0,1-.41.41H517a.36.36,0,0,1-.41-.41v-20a.36.36,0,0,1,.41-.41h3.11a.36.36,0,0,1,.41.41v1.47a.15.15,0,0,0,.06.13c.05,0,.08,0,.11,0a6.18,6.18,0,0,1,5.2-2.26A7.22,7.22,0,0,1,531.19,181.84Z"/></svg>