<svg id="Ebene_1" data-name="Ebene 1" xmlns="http://www.w3.org/2000/svg" viewBox="0 0 353.26 146.83"><defs><style>.cls-1{fill:#ff6168;}.cls-2{fill:#006d64;}</style></defs><path class="cls-1" d="M74.38,63.62h.24a6.13,6.13,0,0,0,6.1-5.88,6.13,6.13,0,0,0-5.88-6.34,6,6,0,0,0-6.33,5.88A6.12,6.12,0,0,0,74.38,63.62Zm.23-8.71h.1a2.62,2.62,0,0,1,2.51,2.71h0a2.61,2.61,0,0,1-5.21-.2A2.61,2.61,0,0,1,74.61,54.91Z"/><path class="cls-1" d="M75.59,65.49c-3.93-.59-7.16,1.9-7.83,6a32,32,0,0,0-.12,7.16c.15,2.33.3,4.74-.46,5.54a2.54,2.54,0,0,1-1.83.5h0a2.51,2.51,0,0,1-1.82-.5c-.76-.8-.61-3.21-.46-5.54A32,32,0,0,0,63,71.53c-.68-4.14-3.91-6.61-7.84-6a5.08,5.08,0,0,0-3.58,2.12c-1.28,1.87-1.42,4.63-.45,9a14.56,14.56,0,0,0,28.54,0c1-4.32.83-7.08-.44-9A5.12,5.12,0,0,0,75.59,65.49Zm-16,13A28.57,28.57,0,0,0,59.51,83a11.4,11.4,0,0,1-5-7.19c-.88-3.93-.53-5.54-.08-6.2A1.58,1.58,0,0,1,55.62,69a5,5,0,0,1,.64,0c2.5,0,3.1,2.4,3.23,3.19A28.94,28.94,0,0,1,59.57,78.47Zm16.64-2.68a11.36,11.36,0,0,1-5,7.19,29.77,29.77,0,0,0,0-4.51,28.35,28.35,0,0,1,.07-6.38c.13-.79.73-3.19,3.23-3.19a5,5,0,0,1,.64,0,1.56,1.56,0,0,1,1.21.64C76.74,70.25,77.09,71.86,76.21,75.79Z"/><path class="cls-1" d="M56.09,63.63h.23A6.11,6.11,0,1,0,50,57.75h0A6.13,6.13,0,0,0,56.09,63.63ZM56,54.91a2.61,2.61,0,1,1-2.51,2.71A2.63,2.63,0,0,1,56,54.91Z"/><path class="cls-2" d="M119.27,71.29a.87.87,0,0,1-.67-.25.94.94,0,0,1-.24-.66V44.63a1,1,0,0,1,.24-.69.87.87,0,0,1,.67-.25h16.09a.88.88,0,0,1,.95.94v1.58a.87.87,0,0,1-.26.67,1,1,0,0,1-.69.24H122.19v9.19h12.38a.88.88,0,0,1,1,.94v1.58a.89.89,0,0,1-.26.65.94.94,0,0,1-.69.26H122.19V70.38a.91.91,0,0,1-.26.66.93.93,0,0,1-.69.25Z"/><path class="cls-2" d="M138,71.29a.75.75,0,0,1-.55-.24.74.74,0,0,1-.24-.55,3.62,3.62,0,0,1,0-.43l9.78-25.52a1.62,1.62,0,0,1,.44-.63,1.27,1.27,0,0,1,.82-.23H151a1.27,1.27,0,0,1,.82.23,1.62,1.62,0,0,1,.44.63L162,70.07a1.46,1.46,0,0,1,.08.43.74.74,0,0,1-.24.55.75.75,0,0,1-.55.24h-2a.87.87,0,0,1-.69-.24,1.3,1.3,0,0,1-.3-.43L156.14,65H143.21L141,70.62a.9.9,0,0,1-.28.43,1,1,0,0,1-.71.24Zm6.31-9.66H155l-5.32-14Z"/><path class="cls-2" d="M175.94,71.69a12.07,12.07,0,0,1-6-1.35,8.68,8.68,0,0,1-3.61-3.74A13.13,13.13,0,0,1,165,61c0-1.08,0-2.24,0-3.47s0-2.42,0-3.55a13.1,13.1,0,0,1,1.34-5.6,8.76,8.76,0,0,1,3.61-3.75,12.18,12.18,0,0,1,6-1.34,13.89,13.89,0,0,1,4.77.75,9.91,9.91,0,0,1,3.41,2,8.71,8.71,0,0,1,2.07,2.82,8.52,8.52,0,0,1,.79,3.22.66.66,0,0,1-.22.59.84.84,0,0,1-.61.23H184a1,1,0,0,1-.61-.19A1.22,1.22,0,0,1,183,52a6.23,6.23,0,0,0-2.51-4.22,8.46,8.46,0,0,0-4.55-1.15,7,7,0,0,0-5.05,1.8c-1.23,1.19-1.89,3.11-2,5.74q-.12,3.23,0,6.62.12,3.95,2,5.74a6.94,6.94,0,0,0,5.05,1.79,8.46,8.46,0,0,0,4.55-1.14A6.23,6.23,0,0,0,183,63a1.22,1.22,0,0,1,.37-.71,1,1,0,0,1,.61-.2h2.17a.93.93,0,0,1,.61.22.61.61,0,0,1,.22.57,8.77,8.77,0,0,1-2.86,6.07,9.77,9.77,0,0,1-3.41,2A13.89,13.89,0,0,1,175.94,71.69Z"/><path class="cls-2" d="M199.4,71.29a.88.88,0,0,1-.65-.25.91.91,0,0,1-.25-.66V47.2h-7.58a.87.87,0,0,1-.9-.91V44.63a.93.93,0,0,1,.25-.69.88.88,0,0,1,.65-.25h19a.88.88,0,0,1,.95.94v1.66a.89.89,0,0,1-.26.65.94.94,0,0,1-.69.26H202.4V70.38a.91.91,0,0,1-.26.66.93.93,0,0,1-.69.25Z"/><path class="cls-2" d="M224.21,71.69a13.81,13.81,0,0,1-5.76-1.07,9,9,0,0,1-3.57-2.74,6.27,6.27,0,0,1-1.32-3.53.79.79,0,0,1,.26-.57.83.83,0,0,1,.61-.26h2a1,1,0,0,1,.71.24,1.23,1.23,0,0,1,.32.55,4.7,4.7,0,0,0,1,1.87,5.49,5.49,0,0,0,2.15,1.54,9.05,9.05,0,0,0,3.61.61,8.35,8.35,0,0,0,5-1.2,3.82,3.82,0,0,0,1.59-3.21,3,3,0,0,0-.84-2.23,7.46,7.46,0,0,0-2.59-1.52c-1.15-.45-2.65-.93-4.49-1.46a26.35,26.35,0,0,1-4.77-1.81,7,7,0,0,1-2.82-2.45,6.78,6.78,0,0,1-.93-3.71,6.62,6.62,0,0,1,1.14-3.8,7.83,7.83,0,0,1,3.32-2.66,12.43,12.43,0,0,1,5.2-1,12.88,12.88,0,0,1,4.28.65,9.25,9.25,0,0,1,3.06,1.74A8,8,0,0,1,233.2,48a5.86,5.86,0,0,1,.67,2.43.88.88,0,0,1-.2.53.75.75,0,0,1-.63.26H231a1.18,1.18,0,0,1-.57-.16,1,1,0,0,1-.45-.59,4,4,0,0,0-1.82-2.72,7,7,0,0,0-4.1-1.11,7.81,7.81,0,0,0-4.16,1,3.37,3.37,0,0,0-1.6,3.08,3.31,3.31,0,0,0,.75,2.22,6.06,6.06,0,0,0,2.37,1.56,40.08,40.08,0,0,0,4.22,1.42,31.94,31.94,0,0,1,5.16,1.83,7.28,7.28,0,0,1,3,2.41,6.45,6.45,0,0,1,1,3.69,7,7,0,0,1-1.3,4.24,8.17,8.17,0,0,1-3.65,2.68A15,15,0,0,1,224.21,71.69Z"/><path class="cls-2" d="M250.83,71.29a.89.89,0,0,1-.68-.25,1,1,0,0,1-.23-.66V44.63a1,1,0,0,1,.23-.69.89.89,0,0,1,.68-.25h16.09a.92.92,0,0,1,.68.25.9.9,0,0,1,.26.69v1.58a.84.84,0,0,1-.26.67,1,1,0,0,1-.68.24H253.74v9.19h12.39a1,1,0,0,1,.69.25.93.93,0,0,1,.25.69v1.58a.88.88,0,0,1-.25.65,1,1,0,0,1-.69.26H253.74V70.38a.91.91,0,0,1-.25.66.93.93,0,0,1-.69.25Z"/><path class="cls-2" d="M282.89,71.69a13.16,13.16,0,0,1-5.8-1.17,8.15,8.15,0,0,1-3.71-3.59,14.08,14.08,0,0,1-1.46-6.09c0-1.16,0-2.27,0-3.33s0-2.18,0-3.33a13.52,13.52,0,0,1,1.52-6.06,8.79,8.79,0,0,1,3.79-3.63,13.85,13.85,0,0,1,11.28,0,8.92,8.92,0,0,1,3.8,3.63,13,13,0,0,1,1.5,6.06c.05,1.15.08,2.26.08,3.33s0,2.17-.08,3.33a13.54,13.54,0,0,1-1.44,6.09,8.2,8.2,0,0,1-3.73,3.59A13,13,0,0,1,282.89,71.69Zm0-3.36a6.86,6.86,0,0,0,4.91-1.81q1.9-1.81,2.07-5.88c.05-1.18.08-2.24.08-3.17s0-2-.08-3.14a9.83,9.83,0,0,0-1-4.41,5.91,5.91,0,0,0-2.46-2.49,8.19,8.19,0,0,0-7,0,5.87,5.87,0,0,0-2.47,2.49,10.09,10.09,0,0,0-1,4.41c0,1.16,0,2.21,0,3.14s0,2,0,3.17q.15,4.06,2.09,5.88A6.89,6.89,0,0,0,282.89,68.33Z"/><path class="cls-2" d="M300.75,71.29a.87.87,0,0,1-.67-.25.94.94,0,0,1-.24-.66V44.63a1,1,0,0,1,.24-.69.87.87,0,0,1,.67-.25h9.62a10.92,10.92,0,0,1,7.06,2.09A7.44,7.44,0,0,1,320,52a7.75,7.75,0,0,1-1.51,5,7.94,7.94,0,0,1-4.13,2.66l6.08,10.49a1,1,0,0,1,.12.43.72.72,0,0,1-.26.55.81.81,0,0,1-.57.24h-1.89a1.28,1.28,0,0,1-1-.35,6.51,6.51,0,0,1-.55-.71l-5.72-10h-6.9V70.38a.91.91,0,0,1-.26.66.93.93,0,0,1-.69.25Zm3-14.43h6.51a6.71,6.71,0,0,0,4.41-1.24,4.59,4.59,0,0,0,1.46-3.69,4.62,4.62,0,0,0-1.44-3.67A6.6,6.6,0,0,0,310.22,47h-6.51Z"/><path class="cls-1" d="M119.27,108.12a.87.87,0,0,1-.67-.25.94.94,0,0,1-.24-.66V81.46a1,1,0,0,1,.24-.69.87.87,0,0,1,.67-.25h16.09a.88.88,0,0,1,.95.94V83a.87.87,0,0,1-.26.67,1,1,0,0,1-.69.24H122.19v9.19h12.38a.88.88,0,0,1,1,.94v1.58a.89.89,0,0,1-.26.65.94.94,0,0,1-.69.26H122.19v10.64a.91.91,0,0,1-.26.66.93.93,0,0,1-.69.25Z"/><path class="cls-1" d="M142.5,108.12a.85.85,0,0,1-.67-.25.94.94,0,0,1-.24-.66V81.46a1,1,0,0,1,.24-.69.85.85,0,0,1,.67-.25h9.62a10.94,10.94,0,0,1,7.06,2.09,7.47,7.47,0,0,1,2.6,6.19,7.75,7.75,0,0,1-1.52,5,7.88,7.88,0,0,1-4.12,2.66l6.08,10.49a1.09,1.09,0,0,1,.11.43.71.71,0,0,1-.25.55.81.81,0,0,1-.57.24h-1.9a1.27,1.27,0,0,1-1-.35,8.24,8.24,0,0,1-.56-.71l-5.71-10h-6.9v10.17a.91.91,0,0,1-.26.66.93.93,0,0,1-.69.25Zm3-14.43H152a6.74,6.74,0,0,0,4.42-1.24,5.39,5.39,0,0,0,0-7.36A6.61,6.61,0,0,0,152,83.83h-6.5Z"/><path class="cls-1" d="M168.52,108.12a.87.87,0,0,1-.67-.25,1,1,0,0,1-.23-.66V81.42a1,1,0,0,1,.23-.65.87.87,0,0,1,.67-.25h2.09a.89.89,0,0,1,.68.25,1,1,0,0,1,.23.65v25.79a1,1,0,0,1-.23.66.89.89,0,0,1-.68.25Z"/><path class="cls-1" d="M179.49,108.12a.85.85,0,0,1-.67-.25.94.94,0,0,1-.24-.66V81.46a1,1,0,0,1,.24-.69.85.85,0,0,1,.67-.25h16.28a.85.85,0,0,1,.67.25,1,1,0,0,1,.24.69V83a.9.9,0,0,1-.24.67.89.89,0,0,1-.67.24h-13.4V92.5h12.54a.87.87,0,0,1,.67.26,1,1,0,0,1,.23.69v1.46a1,1,0,0,1-.23.65.87.87,0,0,1-.67.26H182.37v9h13.72a.9.9,0,0,1,.67.24.89.89,0,0,1,.24.67v1.53a.94.94,0,0,1-.24.66.87.87,0,0,1-.67.25Z"/><path class="cls-1" d="M203.58,108.12a.87.87,0,0,1-.67-.25.93.93,0,0,1-.23-.66V81.46a1,1,0,0,1,.23-.69.87.87,0,0,1,.67-.25h1.82a1.06,1.06,0,0,1,.71.21,1,1,0,0,1,.27.34l13.09,20.11V81.46a1,1,0,0,1,.24-.69.87.87,0,0,1,.67-.25h1.89a1,1,0,0,1,.7.25.93.93,0,0,1,.25.69v25.71a.93.93,0,0,1-.25.67.85.85,0,0,1-.66.28h-1.89a.82.82,0,0,1-.65-.24c-.14-.15-.24-.26-.3-.31L206.42,87.65v19.56a.91.91,0,0,1-.25.66,1,1,0,0,1-.7.25Z"/><path class="cls-1" d="M231.19,108.12a.85.85,0,0,1-.67-.25.94.94,0,0,1-.24-.66V81.46a1,1,0,0,1,.24-.69.85.85,0,0,1,.67-.25h8.95a14.79,14.79,0,0,1,6.54,1.22,7.58,7.58,0,0,1,3.63,3.61,13.77,13.77,0,0,1,1.19,5.85c0,1.19,0,2.23,0,3.12s0,1.92,0,3.07a15,15,0,0,1-1.21,6,7.29,7.29,0,0,1-3.55,3.55,15,15,0,0,1-6.4,1.16Zm2.95-3.35h6a10.48,10.48,0,0,0,4.34-.75,4.59,4.59,0,0,0,2.34-2.41,11.19,11.19,0,0,0,.77-4.37c0-.79.08-1.48.08-2.07V93.39c0-.59,0-1.27-.08-2-.05-2.55-.66-4.44-1.81-5.66s-3.1-1.83-5.84-1.83h-5.8Z"/><path class="cls-1" d="M266.52,108.52a13.81,13.81,0,0,1-5.76-1.07,9,9,0,0,1-3.57-2.74,6.42,6.42,0,0,1-1.32-3.53.79.79,0,0,1,.26-.57.83.83,0,0,1,.61-.26h2a1,1,0,0,1,.71.24,1.23,1.23,0,0,1,.32.55,4.7,4.7,0,0,0,1,1.87,5.59,5.59,0,0,0,2.15,1.54,9.05,9.05,0,0,0,3.61.61,8.35,8.35,0,0,0,5-1.2,3.83,3.83,0,0,0,1.6-3.21,3,3,0,0,0-.85-2.23A7.5,7.5,0,0,0,269.68,97c-1.16-.45-2.66-.93-4.5-1.46a26.35,26.35,0,0,1-4.77-1.81,7.22,7.22,0,0,1-2.82-2.45,6.77,6.77,0,0,1-.93-3.7,6.63,6.63,0,0,1,1.14-3.81,7.83,7.83,0,0,1,3.32-2.66,12.43,12.43,0,0,1,5.2-1,12.88,12.88,0,0,1,4.28.65,9.43,9.43,0,0,1,3.06,1.74,8,8,0,0,1,1.85,2.32,5.86,5.86,0,0,1,.67,2.43.82.82,0,0,1-.2.53.75.75,0,0,1-.63.26h-2.09a1.18,1.18,0,0,1-.57-.16,1,1,0,0,1-.45-.59,4,4,0,0,0-1.82-2.72,7,7,0,0,0-4.1-1.11,7.81,7.81,0,0,0-4.16,1,3.37,3.37,0,0,0-1.6,3.08,3.31,3.31,0,0,0,.75,2.22,6.06,6.06,0,0,0,2.37,1.56,40.89,40.89,0,0,0,4.22,1.42,31.41,31.41,0,0,1,5.17,1.84,7.15,7.15,0,0,1,3,2.4,6.45,6.45,0,0,1,1,3.69,6.92,6.92,0,0,1-1.3,4.24,8.17,8.17,0,0,1-3.65,2.68A15,15,0,0,1,266.52,108.52Z"/><path class="cls-2" d="M65.35,26.44C46.09,26.44,32.68,43,32.68,57.91c0,7.66,3.92,14.63,8.07,22S49,94.61,50.18,103.6C51.1,110.76,55.1,114,63.12,114h4.46c8,0,12-3.19,12.94-10.35,1.16-9,5.37-16.46,9.43-23.69S98,65.57,98,57.91C98,43,84.61,26.44,65.35,26.44ZM86.9,78.2c-4,7.16-8.61,15.29-9.85,25-.69,5.32-3.25,7.31-9.47,7.31H63.12c-6.22,0-8.78-2-9.47-7.31-1.24-9.66-5.82-17.79-9.85-25-3.92-7-7.63-13.55-7.63-20.29,0-13.23,12-28,29.18-28s29.18,14.74,29.18,28C94.53,64.65,90.82,71.23,86.9,78.2Z"/><path class="cls-2" d="M71.38,117.1c-1-.19-1.4.15-6,.15s-5-.34-6-.15c-1.3.24-1.13,2.34.34,2.73a19.91,19.91,0,0,0,5.68.56,20.05,20.05,0,0,0,5.69-.56C72.5,119.44,72.67,117.34,71.38,117.1Z"/></svg>