<svg id="Ebene_3_Kopie_2_Kopie" data-name="Ebene 3 Kopie 2 Kopie" xmlns="http://www.w3.org/2000/svg" viewBox="0 0 579 346.71"><defs><style>.cls-1{fill:#0d8faf;}</style></defs><path class="cls-1" d="M75,79.11a73.75,73.75,0,0,0-30.8,6.35L41.77,83H0V346.71l44-8.8v-76c1,0,2.68.67,6.28,2a53.63,53.63,0,0,0,11,2.8,113.85,113.85,0,0,0,15.22.8q33.6,0,54-19.4T151,192.31v-35.6q0-34.4-19.42-56T75,79.11Z"/><path class="cls-1" d="M201.76,4.71a23.37,23.37,0,0,0-16.8,7q-7.2,7-7.2,16.2a23,23,0,0,0,7.2,16.8,23,23,0,0,0,16.8,7.2q9.19,0,16.2-7.2a23.33,23.33,0,0,0,7-16.8,22.24,22.24,0,0,0-7-16.2A22.28,22.28,0,0,0,201.76,4.71Z"/><rect class="cls-1" x="179" y="83" width="44" height="185"/><path class="cls-1" d="M357.4,86.66c-.8-.27-2.47-1.11-5-2.18s-4.67-2-6.4-2.68A40.33,40.33,0,0,0,338,80a79.72,79.72,0,0,0-11.8-.83c-24.8,0-43.77,7.26-56.7,21.79S250,134.18,250,157.11v35.2c0,24.27,6.9,42.87,20.5,55.8s31.65,19.4,54.05,19.4a105.87,105.87,0,0,0,13.42-.8,68.27,68.27,0,0,0,9-1.6c1.86-.53,3.74-1.2,6-2s4-1.33,4-1.6v76.4l44,8.8V83H360.2ZM357,197.25A27.76,27.76,0,0,1,329.25,225h-9.5A27.76,27.76,0,0,1,292,197.25v-46.5A27.76,27.76,0,0,1,319.75,123h9.5A27.76,27.76,0,0,1,357,150.75Z"/><path class="cls-1" d="M535,8.8v76s-2.4-.67-6-2A52.92,52.92,0,0,0,518.1,80,112.68,112.68,0,0,0,503,79.2c-22.4,0-40.17,6.46-53.78,19.4S429,130.13,429,154.4V190c0,22.93,6.27,41.6,19.2,56s31.7,21.6,56.5,21.6c11.74,0,21.95-1.7,30.75-5.7l2.35,3.1H579V0Zm1,188.45A27.76,27.76,0,0,1,508.25,225h-9.5A27.76,27.76,0,0,1,471,197.25v-46.5A27.76,27.76,0,0,1,498.75,123h9.5A27.76,27.76,0,0,1,536,150.75Z"/></svg>